<?xml version="1.0" standalone="no"?>
<!DOCTYPE svg PUBLIC "-//W3C//DTD SVG 20010904//EN"
 "http://www.w3.org/TR/2001/REC-SVG-20010904/DTD/svg10.dtd">
<svg version="1.0" xmlns="http://www.w3.org/2000/svg"
 width="948.000000pt" height="948.000000pt" viewBox="0 0 948.000000 948.000000"
 preserveAspectRatio="xMidYMid meet">
<metadata>
Created by potrace 1.16, written by Peter Selinger 2001-2019
</metadata>
<g transform="translate(0.000000,948.000000) scale(0.100000,-0.100000)"
fill="#234158" stroke="none">
<path d="M2265 9442 c-49 -1 -97 -5 -105 -9 -8 -4 -55 -12 -105 -19 -99 -14
-219 -39 -250 -53 -11 -5 -45 -15 -75 -22 -30 -6 -59 -15 -65 -19 -5 -4 -30
-14 -55 -21 -25 -7 -61 -23 -80 -34 -19 -12 -51 -27 -70 -34 -31 -10 -95 -41
-175 -85 -11 -6 -34 -21 -50 -32 -17 -12 -48 -32 -69 -44 -22 -12 -59 -37 -82
-56 -23 -19 -61 -47 -84 -63 -57 -38 -304 -284 -343 -341 -16 -25 -50 -68 -74
-97 -23 -28 -43 -54 -43 -57 0 -3 -17 -32 -37 -63 -45 -69 -53 -83 -108 -190
-23 -45 -46 -95 -50 -110 -3 -15 -12 -35 -19 -43 -7 -8 -18 -35 -25 -60 -7
-25 -17 -49 -21 -55 -4 -5 -11 -26 -15 -45 -4 -19 -11 -39 -15 -45 -4 -5 -13
-41 -20 -80 -8 -38 -17 -75 -22 -81 -4 -6 -13 -58 -19 -115 -6 -57 -15 -113
-19 -124 -5 -11 -11 -67 -15 -124 -3 -57 -10 -127 -16 -154 -13 -70 -12 -5041
1 -5127 6 -36 17 -114 25 -175 8 -60 21 -128 29 -150 8 -22 17 -55 21 -73 4
-18 13 -45 21 -60 8 -15 14 -35 14 -44 0 -9 4 -19 9 -23 5 -3 13 -20 16 -38 7
-32 16 -54 65 -162 15 -33 31 -67 34 -75 4 -8 21 -40 39 -71 18 -31 40 -71 51
-90 10 -19 34 -55 52 -82 19 -26 34 -51 34 -57 0 -5 9 -14 20 -20 11 -6 20
-15 20 -21 0 -10 46 -69 115 -148 128 -145 374 -353 485 -409 14 -7 39 -21 55
-32 17 -11 37 -23 45 -26 37 -16 159 -76 200 -99 25 -14 52 -25 60 -25 9 0 24
-6 35 -14 11 -7 44 -19 73 -26 28 -6 54 -16 57 -20 3 -4 35 -13 72 -20 38 -7
73 -16 78 -20 6 -4 37 -11 70 -15 33 -4 65 -11 70 -15 33 -26 372 -30 2738
-30 2370 0 2610 3 2672 30 11 5 45 11 75 15 30 3 59 10 65 14 5 5 40 14 78 21
37 7 69 16 72 20 3 4 28 14 56 20 29 7 64 19 78 26 14 8 30 14 34 14 10 0 97
37 117 50 8 6 26 15 40 21 64 27 130 62 130 69 0 5 14 11 31 15 17 4 33 13 36
21 3 8 9 14 14 14 6 0 34 18 63 40 29 22 57 40 63 40 5 0 18 9 28 20 10 11 23
20 29 20 6 0 24 16 39 35 15 19 33 35 39 35 38 0 408 425 408 470 0 5 4 10 9
10 5 0 16 12 24 28 48 89 56 104 65 115 19 22 92 172 92 187 0 9 6 24 13 35 7
11 19 40 27 65 7 25 17 49 22 55 4 5 8 16 8 25 0 8 7 28 15 43 8 15 19 56 26
90 7 34 15 67 20 72 4 6 13 53 19 105 7 52 14 102 18 110 3 8 12 85 20 170 12
126 15 599 18 2570 3 1594 1 2454 -6 2530 -24 269 -30 325 -39 354 -6 17 -13
56 -17 86 -4 30 -10 60 -14 65 -5 6 -13 38 -19 72 -7 34 -18 75 -26 90 -8 15
-15 35 -15 43 0 9 -4 20 -9 25 -5 6 -14 28 -21 50 -16 53 -171 365 -181 365
-4 0 -10 14 -14 30 -4 17 -15 35 -26 40 -10 6 -19 15 -19 21 0 12 -59 94 -89
125 -12 12 -21 24 -21 29 0 10 -199 226 -224 244 -12 8 -39 31 -62 50 -69 61
-98 86 -116 96 -9 6 -51 34 -93 63 -42 28 -79 52 -83 52 -3 0 -13 6 -21 14
-16 14 -152 85 -201 106 -14 5 -32 14 -40 20 -25 16 -108 50 -122 50 -7 0 -24
6 -38 13 -14 8 -48 19 -75 26 -27 7 -54 16 -60 20 -5 5 -46 14 -90 21 -44 7
-84 16 -90 20 -5 5 -46 11 -90 15 -44 4 -84 10 -89 13 -8 5 -4863 9 -5031 4z
m4245 -4797 l0 -1655 -1790 0 -1790 0 0 1655 0 1655 1790 0 1790 0 0 -1655z"/>
</g>
</svg>
